<svg xmlns="http://www.w3.org/2000/svg" version="1.1" xmlns:xlink="http://www.w3.org/1999/xlink" xmlns:svgjs="http://svgjs.dev/svgjs" width="1000" height="272" viewBox="0 0 1000 272"><g transform="matrix(1,0,0,1,-0.6060606060606233,-0.3233324435494467)"><svg viewBox="0 0 396 108" data-background-color="#ffffff" preserveAspectRatio="xMidYMid meet" height="272" width="1000" xmlns="http://www.w3.org/2000/svg" xmlns:xlink="http://www.w3.org/1999/xlink"><g id="tight-bounds" transform="matrix(1,0,0,1,0.2400000000000091,0.12838199964463115)"><svg viewBox="0 0 395.52 107.74323600071075" height="107.74323600071075" width="395.52"><g><svg viewBox="0 0 452.59414962395704 123.29075211234577" height="107.74323600071075" width="395.52"><g transform="matrix(1,0,0,1,55.09654962395714,14.551887854360139)"><svg viewBox="0 0 397.4975999999999 94.1869764036255" height="94.1869764036255" width="397.4975999999999"><g id="textblocktransform"><svg viewBox="0 0 397.4975999999999 94.1869764036255" height="94.1869764036255" width="397.4975999999999" id="textblock"><g><rect width="397.4975999999999" height="4.039607651076376" x="0" y="49.55312707224679" fill="#d0b794" opacity="1" stroke-width="0" stroke="transparent" fill-opacity="1" class="rect-i$-0" data-fill-palette-color="primary" rx="1%" id="i$-0" data-palette-color="#d0b794"></rect></g><g transform="matrix(1,0,0,1,0.9887999999999693,0)"><svg viewBox="0 0 395.52 44.79442695972226" height="44.79442695972226" width="395.52"><g transform="matrix(1,0,0,1,0,0)"><svg width="395.52" viewBox="2.34 -37.55 335.83218520555414 38.04" height="44.79442695972226" data-palette-color="#d0b794"><g transform="matrix(1,0,0,1,0,0)"><g><svg width="11.922035205554144" viewBox="1.78 -36.36 74.21 36.36" height="5.841226818415045" data-palette-color="#d0b794" id="scriptelement" x="323.78101760277707" y="-32.04046340920752"><path d="M12.91-30.02L1.78-30.02 1.78-36.36 31.64-36.36 31.64-30.02 20.51-30.02 20.51 0 12.91 0 12.91-30.02ZM36.57 0L36.57-36.36 46.06-36.36 56.07-11.93 56.5-11.93 66.51-36.36 75.99-36.36 75.99 0 68.53 0 68.53-23.67 68.23-23.67 58.82-0.18 53.74-0.18 44.33-23.76 44.03-23.76 44.03 0 36.57 0Z" opacity="1" transform="matrix(1,0,0,1,0,0)" fill="#d0b794" class="undefined-123" id="av-123"></path></svg></g></g><path d="M321.312-29.12C321.312-33.776 325.086-37.55 329.742-37.55 334.398-37.55 338.172-33.776 338.172-29.12 338.172-24.464 334.398-20.69 329.742-20.69 325.086-20.69 321.312-24.464 321.312-29.12ZM329.742-21.09C334.177-21.09 337.772-24.685 337.772-29.12 337.772-33.555 334.177-37.15 329.742-37.15 325.307-37.15 321.712-33.555 321.712-29.12 321.712-24.685 325.307-21.09 329.742-21.09Z" fill="#d0b794" id="scriptcircle" data-fill-palette-color="primary"></path><path d="M37.33-10.3L37.33-10.3Q37.33-8.42 36.85-6.92 36.38-5.42 35.6-4.27 34.81-3.13 33.76-2.32 32.71-1.51 31.59-1 30.47-0.49 29.31-0.24 28.15 0 27.12 0L27.12 0 2.64 0 2.64-6.35 27.12-6.35Q28.96-6.35 29.97-7.42 30.98-8.5 30.98-10.3L30.98-10.3Q30.98-11.18 30.71-11.91 30.44-12.65 29.94-13.18 29.44-13.72 28.72-14.01 28-14.31 27.12-14.31L27.12-14.31 12.52-14.31Q10.99-14.31 9.2-14.86 7.42-15.41 5.9-16.63 4.37-17.85 3.36-19.82 2.34-21.8 2.34-24.66L2.34-24.66Q2.34-27.51 3.36-29.48 4.37-31.45 5.9-32.68 7.42-33.91 9.2-34.46 10.99-35.01 12.52-35.01L12.52-35.01 34.13-35.01 34.13-28.66 12.52-28.66Q10.72-28.66 9.7-27.56 8.69-26.46 8.69-24.66L8.69-24.66Q8.69-22.83 9.7-21.77 10.72-20.7 12.52-20.7L12.52-20.7 27.12-20.7 27.17-20.7Q28.2-20.68 29.35-20.42 30.49-20.17 31.63-19.63 32.76-19.09 33.79-18.27 34.81-17.46 35.61-16.31 36.4-15.16 36.87-13.67 37.33-12.18 37.33-10.3ZM76.95-31.81L76.95 0 70.6 0 70.6-8.59 48.29-8.59 48.29 0 41.94 0 41.94-17.5Q41.94-21.34 43.26-24.56 44.58-27.78 46.92-30.1 49.27-32.42 52.46-33.72 55.66-35.01 59.45-35.01L59.45-35.01 73.75-35.01Q74.41-35.01 75-34.77 75.58-34.52 76.02-34.08 76.46-33.64 76.71-33.06 76.95-32.47 76.95-31.81L76.95-31.81ZM48.29-17.5L48.29-14.94 70.6-14.94 70.6-28.66 59.45-28.66Q59.15-28.66 58.21-28.58 57.27-28.49 56.04-28.15 54.81-27.81 53.44-27.1 52.07-26.39 50.93-25.15 49.78-23.9 49.03-22.03 48.29-20.17 48.29-17.5L48.29-17.5ZM106.59-26.39L106.59-20.04 92.3-20.04Q91.01-20.04 90.35-19.4 89.69-18.75 89.69-17.5L89.69-17.5 89.69 0 83.34 0 83.34-17.5Q83.34-19.14 83.76-20.43 84.17-21.73 84.87-22.72 85.57-23.71 86.47-24.4 87.37-25.1 88.36-25.54 89.35-25.98 90.36-26.18 91.38-26.39 92.26-26.39L92.26-26.39 106.59-26.39ZM139.37-17.5L139.37-8.91Q139.37-7.28 138.96-5.97 138.54-4.66 137.86-3.67 137.18-2.69 136.27-1.99 135.37-1.29 134.38-0.85 133.39-0.42 132.38-0.21 131.36 0 130.46 0L130.46 0 119.01 0Q117.69 0 116.13-0.46 114.57-0.93 113.24-1.99 111.91-3.05 111.02-4.75 110.12-6.45 110.12-8.91L110.12-8.91 110.12-17.5Q110.12-19.95 111.02-21.64 111.91-23.34 113.24-24.4 114.57-25.46 116.13-25.93 117.69-26.39 119.01-26.39L119.01-26.39 130.46-26.39Q132.9-26.39 134.61-25.51 136.32-24.63 137.37-23.3 138.42-21.97 138.9-20.41 139.37-18.85 139.37-17.5L139.37-17.5ZM133.02-8.91L133.02-17.46Q133.02-18.77 132.37-19.41 131.71-20.04 130.46-20.04L130.46-20.04 119.06-20.04Q117.79-20.04 117.13-19.4 116.47-18.75 116.47-17.5L116.47-17.5 116.47-8.91Q116.47-7.67 117.13-7.01 117.79-6.35 119.06-6.35L119.06-6.35 130.46-6.35Q131.76-6.35 132.39-7.01 133.02-7.67 133.02-8.91L133.02-8.91ZM168.32-17.5L168.32 0 161.98 0 161.98-17.5Q161.98-18.75 161.32-19.4 160.66-20.04 159.37-20.04L159.37-20.04 151.11-20.04 151.11 0 144.77 0 144.77-23.24Q144.77-23.9 145.01-24.48 145.25-25.05 145.69-25.48 146.13-25.9 146.72-26.15 147.3-26.39 147.96-26.39L147.96-26.39 159.41-26.39Q160.73-26.39 162.25-25.93 163.76-25.46 165.13-24.44L165.13-24.44 165.13-26.39 173.72-26.39Q174.62-26.39 175.62-26.18 176.63-25.98 177.61-25.54 178.6-25.1 179.51-24.4 180.41-23.71 181.09-22.72 181.78-21.73 182.19-20.43 182.61-19.14 182.61-17.5L182.61-17.5 182.61 0 176.26 0 176.26-17.5Q176.26-18.75 175.64-19.4 175.01-20.04 173.72-20.04L173.72-20.04 168.01-20.04Q168.32-18.87 168.32-17.5L168.32-17.5ZM215.69-17.65L215.69-8.74Q215.69-7.42 215.22-5.9 214.76-4.37 213.72-3.06 212.68-1.76 211.01-0.88 209.34 0 206.95 0L206.95 0 195.5 0Q194.18 0 192.65-0.46 191.13-0.93 189.82-1.97 188.51-3 187.63-4.68 186.76-6.35 186.76-8.74L186.76-8.74Q186.76-10.06 187.22-11.6 187.68-13.13 188.72-14.44 189.76-15.75 191.43-16.63 193.1-17.5 195.5-17.5L195.5-17.5 206.95-17.5 206.95-11.45 195.5-11.45Q194.2-11.45 193.49-10.66 192.79-9.86 192.79-8.69L192.79-8.69Q192.79-7.45 193.6-6.75 194.42-6.05 195.54-6.05L195.54-6.05 206.95-6.05Q208.24-6.05 208.95-6.84 209.66-7.62 209.66-8.79L209.66-8.79 209.66-17.65Q209.66-18.9 208.89-19.63 208.12-20.36 206.95-20.36L206.95-20.36 193.01-20.36 193.01-26.39 206.95-26.39Q208.26-26.39 209.79-25.93 211.32-25.46 212.62-24.43 213.93-23.39 214.81-21.72 215.69-20.04 215.69-17.65L215.69-17.65ZM258.55-20.85L258.55-14.16Q258.55-10.96 257.46-8.28 256.36-5.59 254.4-3.64 252.45-1.68 249.78-0.6 247.1 0.49 243.95 0.49L243.95 0.49 235.36 0.49Q232.21 0.49 229.53-0.6 226.84-1.68 224.89-3.64 222.93-5.59 221.82-8.28 220.71-10.96 220.71-14.16L220.71-14.16 220.71-20.85Q220.71-24.02 221.82-26.72 222.93-29.42 224.89-31.36 226.84-33.3 229.53-34.4 232.21-35.5 235.36-35.5L235.36-35.5 243.95-35.5Q247.1-35.5 249.78-34.4 252.45-33.3 254.4-31.36 256.36-29.42 257.46-26.72 258.55-24.02 258.55-20.85L258.55-20.85ZM252.21-14.16L252.21-20.85Q252.21-22.73 251.61-24.26 251.01-25.78 249.92-26.87 248.84-27.95 247.31-28.55 245.79-29.15 243.95-29.15L243.95-29.15 235.36-29.15Q233.51-29.15 231.98-28.55 230.45-27.95 229.36-26.87 228.26-25.78 227.66-24.26 227.06-22.73 227.06-20.85L227.06-20.85 227.06-14.16Q227.06-12.28 227.66-10.75 228.26-9.23 229.36-8.14 230.45-7.06 231.98-6.46 233.51-5.86 235.36-5.86L235.36-5.86 243.91-5.86Q245.76-5.86 247.29-6.46 248.81-7.06 249.91-8.14 251.01-9.23 251.61-10.75 252.21-12.28 252.21-14.16L252.21-14.16ZM270.56-37.55L270.56-31.81 264.22-31.81 264.22-37.55 270.56-37.55ZM270.56-26.39L270.56 0 264.22 0 264.22-26.39 270.56-26.39ZM288.24-6.35L288.24 0 285.4 0Q284.04 0 282.49-0.46 280.94-0.93 279.59-1.99 278.25-3.05 277.37-4.75 276.49-6.45 276.49-8.91L276.49-8.91 276.49-37.55 282.84-37.55 282.84-8.91Q282.84-7.74 283.57-7.04 284.31-6.35 285.4-6.35L285.4-6.35 288.24-6.35ZM317.82-8.91L317.82-8.91Q317.82-7.28 317.41-5.97 316.99-4.66 316.31-3.67 315.63-2.69 314.72-1.99 313.82-1.29 312.83-0.85 311.84-0.42 310.83-0.21 309.82 0 308.91 0L308.91 0 291.73 0 291.73-6.35 308.86-6.35Q310.16-6.35 310.82-7.01 311.48-7.67 311.48-8.91L311.48-8.91Q311.35-11.45 308.91-11.45L308.91-11.45 299.07-11.45Q296.97-11.45 295.51-12.18 294.04-12.92 293.13-14.01 292.21-15.11 291.81-16.38 291.41-17.65 291.41-18.75L291.41-18.75Q291.41-20.87 292.17-22.33 292.92-23.78 294.07-24.68 295.22-25.59 296.56-25.99 297.9-26.39 299.07-26.39L299.07-26.39 314.67-26.39 314.67-20.04 299.12-20.04Q298.63-20.04 298.35-19.93 298.07-19.82 297.94-19.64 297.8-19.46 297.78-19.25 297.76-19.04 297.76-18.85L297.76-18.85Q297.78-18.46 297.9-18.24 298.02-18.02 298.21-17.92 298.39-17.82 298.62-17.81 298.85-17.8 299.07-17.8L299.07-17.8 308.91-17.8Q311.35-17.8 313.06-16.92 314.77-16.04 315.82-14.71 316.87-13.38 317.35-11.82 317.82-10.25 317.82-8.91Z" opacity="1" transform="matrix(1,0,0,1,0,0)" fill="#d0b794" class="undefined-text-0" data-fill-palette-color="primary" id="text-0"></path></svg></g></svg></g><g transform="matrix(1,0,0,1,0,58.35143483584769)"><svg viewBox="0 0 215.08549848240835 35.83554156777781" height="35.83554156777781" width="215.08549848240835"><g transform="matrix(1,0,0,1,0,0)"><svg width="215.08549848240835" viewBox="1.13 -37.5 297.67 49.6" height="35.83554156777781" data-palette-color="#d0b794"><path d="M8.55 0.5L8.55 0.5Q6.4 0.5 4.73-0.41 3.05-1.33 2.09-2.95 1.13-4.58 1.13-6.78L1.13-6.78Q1.13-8.88 2.08-10.36 3.03-11.85 4.6-12.85 6.18-13.85 8.06-14.44 9.95-15.03 11.9-15.3 13.85-15.58 15.53-15.6L15.53-15.6Q15.5-18.53 14.28-19.56 13.05-20.6 10.55-20.6L10.55-20.6Q9.05-20.6 7.48-20.16 5.9-19.73 3.93-18.53L3.93-18.53 3.33-22.78Q5.13-23.88 7.35-24.53 9.58-25.18 11.95-25.18L11.95-25.18Q14.93-25.18 16.88-24.13 18.82-23.08 19.8-20.65 20.78-18.23 20.78-14.15L20.78-14.15 20.78-8.4Q20.78-6.6 20.94-5.59 21.1-4.58 21.65-4.15 22.2-3.73 23.33-3.73L23.33-3.73 23.93-3.73 23.28 0.5 22.13 0.5Q20.28 0.5 19.14 0.1 18-0.3 17.3-1.04 16.6-1.78 16.13-2.8L16.13-2.8Q14.8-1.3 12.84-0.4 10.88 0.5 8.55 0.5ZM10.15-3.6L10.15-3.6Q11.55-3.6 13.04-4.3 14.53-5 15.55-6.25L15.55-6.25 15.55-12.05Q12.75-11.93 10.74-11.39 8.72-10.85 7.64-9.78 6.55-8.7 6.55-7.03L6.55-7.03Q6.55-5.23 7.5-4.41 8.45-3.6 10.15-3.6ZM32.75 0L27.35 0 27.35-24.7 31.95-24.7 32.32-21.25Q33.82-23.05 35.53-24.13 37.25-25.2 39.25-25.2L39.25-25.2Q39.85-25.2 40.37-25.08L40.37-25.08 39.92-19.65Q39.5-19.75 39.06-19.8 38.62-19.85 38.15-19.85L38.15-19.85Q36.35-19.85 34.86-19.04 33.37-18.23 32.75-17.2L32.75-17.2 32.75 0ZM53.84 0.5L53.84 0.5Q49.92 0.5 47.13-1.24 44.34-2.98 42.88-5.89 41.42-8.8 41.42-12.33L41.42-12.33Q41.42-15.88 42.88-18.8 44.34-21.73 47.13-23.46 49.92-25.2 53.84-25.2L53.84-25.2Q57.8-25.2 60.58-23.46 63.37-21.73 64.83-18.8 66.3-15.88 66.3-12.33L66.3-12.33Q66.3-8.8 64.83-5.89 63.37-2.98 60.58-1.24 57.8 0.5 53.84 0.5ZM53.84-3.98L53.84-3.98Q57.3-3.98 59.13-6.23 60.97-8.47 60.97-12.33L60.97-12.33Q60.97-16.2 59.13-18.48 57.3-20.75 53.84-20.75L53.84-20.75Q50.44-20.75 48.59-18.48 46.74-16.2 46.74-12.33L46.74-12.33Q46.74-8.47 48.59-6.23 50.44-3.98 53.84-3.98ZM76.02 0L70.79 0 70.79-24.7 75.07-24.7 75.77-20.45 74.39-21.38Q76.32-23.28 78.42-24.23 80.52-25.18 83.02-25.18L83.02-25.18Q84.92-25.18 86.52-24.59 88.12-24 89.35-22.7 90.59-21.4 91.34-19.25L91.34-19.25 89.99-19.73Q91.14-22.28 93.43-23.73 95.72-25.18 99.17-25.18L99.17-25.18Q102.39-25.18 104.53-23.91 106.67-22.65 107.72-20.21 108.77-17.78 108.77-14.23L108.77-14.23 108.77 0 103.54 0 103.54-14Q103.54-17.48 102.31-19.09 101.07-20.7 98.24-20.7L98.24-20.7Q96.47-20.7 95.32-20.14 94.17-19.58 93.53-18.61 92.89-17.65 92.64-16.48 92.39-15.3 92.39-14.08L92.39-14.08 92.39 0 87.17 0 87.17-13.48Q87.17-16.2 86.54-17.78 85.92-19.35 84.72-20.03 83.52-20.7 81.82-20.7L81.82-20.7Q79.47-20.7 77.75-19.65 76.04-18.6 75.22-16.5L75.22-16.5 76.02-19.33 76.02 0ZM120.04 0.5L120.04 0.5Q117.89 0.5 116.22-0.41 114.54-1.33 113.58-2.95 112.62-4.58 112.62-6.78L112.62-6.78Q112.62-8.88 113.57-10.36 114.52-11.85 116.09-12.85 117.67-13.85 119.55-14.44 121.44-15.03 123.39-15.3 125.34-15.58 127.02-15.6L127.02-15.6Q126.99-18.53 125.77-19.56 124.54-20.6 122.04-20.6L122.04-20.6Q120.54-20.6 118.97-20.16 117.39-19.73 115.42-18.53L115.42-18.53 114.82-22.78Q116.62-23.88 118.84-24.53 121.07-25.18 123.44-25.18L123.44-25.18Q126.42-25.18 128.37-24.13 130.31-23.08 131.29-20.65 132.27-18.23 132.27-14.15L132.27-14.15 132.27-8.4Q132.27-6.6 132.43-5.59 132.59-4.58 133.14-4.15 133.69-3.73 134.81-3.73L134.81-3.73 135.42-3.73 134.77 0.5 133.62 0.5Q131.77 0.5 130.63 0.1 129.49-0.3 128.79-1.04 128.09-1.78 127.62-2.8L127.62-2.8Q126.29-1.3 124.33-0.4 122.37 0.5 120.04 0.5ZM121.64-3.6L121.64-3.6Q123.04-3.6 124.53-4.3 126.02-5 127.04-6.25L127.04-6.25 127.04-12.05Q124.24-11.93 122.23-11.39 120.22-10.85 119.13-9.78 118.04-8.7 118.04-7.03L118.04-7.03Q118.04-5.23 118.99-4.41 119.94-3.6 121.64-3.6ZM150.94 0.5L146.71 0.5Q144.39 0.5 142.95-0.4 141.51-1.3 140.85-2.7 140.19-4.1 140.19-5.65L140.19-5.65 140.19-20.53 136.26-20.53 136.74-24.7 140.19-24.7 140.19-30.53 145.41-31.08 145.41-24.7 151.46-24.7 151.46-20.53 145.41-20.53 145.41-8.3Q145.41-6.15 145.66-5.19 145.91-4.23 146.89-3.98 147.86-3.73 149.99-3.73L149.99-3.73 151.39-3.73 150.94 0.5ZM160.59 0L155.34 0 155.34-37.5 160.59-37.5 160.59-20.73 159.09-21.25Q160.74-22.95 162.67-24.06 164.61-25.18 167.49-25.18L167.49-25.18Q170.71-25.18 172.81-23.74 174.91-22.3 175.94-19.73 176.96-17.15 176.96-13.75L176.96-13.75 176.96 0 171.74 0 171.74-13.25Q171.74-17.07 170.41-18.89 169.09-20.7 166.24-20.7L166.24-20.7Q163.96-20.7 162.35-19.55 160.74-18.4 159.69-16.48L159.69-16.48 160.59-19.48 160.59 0ZM194.58 0.5L194.58 0.5Q190.16 0.5 187.18-1.29 184.21-3.08 182.7-6.04 181.18-9 181.18-12.53L181.18-12.53Q181.18-15.95 182.6-18.82 184.01-21.7 186.72-23.44 189.43-25.18 193.28-25.18L193.28-25.18Q196.56-25.18 198.96-23.85 201.36-22.53 202.65-20.15 203.93-17.78 203.93-14.6L203.93-14.6Q203.93-13.95 203.87-13.25 203.81-12.55 203.66-11.78L203.66-11.78 186.58-11.78Q186.91-8.85 188.13-7.14 189.36-5.43 191.18-4.7 193.01-3.98 195.13-3.98L195.13-3.98Q197.03-3.98 198.88-4.41 200.73-4.85 202.36-5.68L202.36-5.68 202.83-1.4Q201.41-0.73 199.33-0.11 197.26 0.5 194.58 0.5ZM186.88-15.35L186.88-15.35 198.58-15.35Q198.58-16.82 198.03-18.04 197.48-19.25 196.3-19.98 195.11-20.7 193.23-20.7L193.23-20.7Q190.48-20.7 188.97-19.25 187.46-17.8 186.88-15.35ZM213.76 0L208.36 0 208.36-24.7 212.96-24.7 213.33-21.25Q214.83-23.05 216.54-24.13 218.26-25.2 220.26-25.2L220.26-25.2Q220.86-25.2 221.38-25.08L221.38-25.08 220.93-19.65Q220.51-19.75 220.07-19.8 219.63-19.85 219.16-19.85L219.16-19.85Q217.36-19.85 215.87-19.04 214.38-18.23 213.76-17.2L213.76-17.2 213.76 0ZM229.7 0.5L229.7 0.5Q227.55 0.5 225.88-0.41 224.2-1.33 223.24-2.95 222.28-4.58 222.28-6.78L222.28-6.78Q222.28-8.88 223.23-10.36 224.18-11.85 225.75-12.85 227.33-13.85 229.22-14.44 231.1-15.03 233.05-15.3 235-15.58 236.68-15.6L236.68-15.6Q236.65-18.53 235.43-19.56 234.2-20.6 231.7-20.6L231.7-20.6Q230.2-20.6 228.63-20.16 227.05-19.73 225.08-18.53L225.08-18.53 224.48-22.78Q226.28-23.88 228.5-24.53 230.73-25.18 233.1-25.18L233.1-25.18Q236.08-25.18 238.03-24.13 239.98-23.08 240.95-20.65 241.93-18.23 241.93-14.15L241.93-14.15 241.93-8.4Q241.93-6.6 242.09-5.59 242.25-4.58 242.8-4.15 243.35-3.73 244.48-3.73L244.48-3.73 245.08-3.73 244.43 0.5 243.28 0.5Q241.43 0.5 240.29 0.1 239.15-0.3 238.45-1.04 237.75-1.78 237.28-2.8L237.28-2.8Q235.95-1.3 233.99-0.4 232.03 0.5 229.7 0.5ZM231.3-3.6L231.3-3.6Q232.7-3.6 234.19-4.3 235.68-5 236.7-6.25L236.7-6.25 236.7-12.05Q233.9-11.93 231.89-11.39 229.88-10.85 228.79-9.78 227.7-8.7 227.7-7.03L227.7-7.03Q227.7-5.23 228.65-4.41 229.6-3.6 231.3-3.6ZM253.73 12.1L248.5 12.1 248.5-24.7 252.65-24.7 253.63-19.73 252.13-20.53Q253.73-22.65 255.9-23.91 258.08-25.18 261.23-25.18L261.23-25.18Q264.7-25.18 267.15-23.44 269.6-21.7 270.88-18.79 272.15-15.88 272.15-12.33L272.15-12.33Q272.15-8.8 270.91-5.89 269.68-2.98 267.25-1.24 264.83 0.5 261.23 0.5L261.23 0.5Q258.3 0.5 256.16-0.54 254.03-1.58 252.63-3.73L252.63-3.73 253.73-4.75 253.73 12.1ZM260.33-3.98L260.33-3.98Q263.38-3.98 265.09-6.23 266.8-8.47 266.8-12.33L266.8-12.33Q266.8-16.2 265.09-18.45 263.38-20.7 260.33-20.7L260.33-20.7Q258.25-20.7 256.71-19.73 255.18-18.75 254.31-16.89 253.45-15.03 253.45-12.33L253.45-12.33Q253.45-9.58 254.31-7.73 255.18-5.88 256.71-4.93 258.25-3.98 260.33-3.98ZM283.52 12.1L278.02 12.1 283.62-1.33 273.35-24.7 279.15-24.7 286.27-7.4 293-24.7 298.8-24.7 283.52 12.1Z" opacity="1" transform="matrix(1,0,0,1,0,0)" fill="#d0b794" class="undefined-text-1" data-fill-palette-color="secondary" id="text-1"></path></svg></g></svg></g></svg></g></svg></g><g><svg viewBox="0 0 44.52166048501375 123.29075211234577" height="123.29075211234577" width="44.52166048501375"><g><svg xmlns="http://www.w3.org/2000/svg" xmlns:xlink="http://www.w3.org/1999/xlink" version="1.1" x="0" y="0" viewBox="33.75 6.25 32.5 90" style="enable-background:new 0 0 100 100;" xml:space="preserve" height="123.29075211234577" width="44.52166048501375" class="icon-icon-0" data-fill-palette-color="accent" id="icon-0"><path d="M56.25 25.015V18.75h2.5v-7.5h-2.5v-5h-12.5v5h-2.5v7.5h2.5v6.265c-6.017 2.509-10 8.422-10 14.985v56.25h32.5V40C66.25 33.437 62.267 27.523 56.25 25.015zM46.25 8.75h7.5v2.5h-7.5V8.75zM43.75 13.75h12.5v2.5h-12.5V13.75zM63.75 93.75h-27.5v-22.5h27.5V93.75zM63.75 68.75h-27.5v-17.5h27.5V68.75zM63.75 48.75h-27.5V40c0-5.805 3.684-11.009 9.167-12.95l0.833-0.295V18.75h7.5v8.005l0.833 0.295c5.483 1.941 9.167 7.145 9.167 12.95V48.75z" fill="#d0b794" data-fill-palette-color="accent"></path><path d="M42.5 68.125c1.971 0 3.659-1.114 4.62-1.914 0.474 1.124 1.586 1.914 2.88 1.914s2.406-0.791 2.88-1.914c0.961 0.8 2.649 1.914 4.62 1.914 3.207 0 5.625-1.343 5.625-3.125 0-1.774-2.399-3.112-5.586-3.123 2.245-2.261 2.996-4.903 1.741-6.158-0.394-0.394-0.948-0.601-1.603-0.601-1.357 0-3.1 0.897-4.555 2.342-0.012-3.186-1.349-5.585-3.123-5.585s-3.111 2.399-3.123 5.585c-1.455-1.444-3.198-2.342-4.555-2.342-0.655 0-1.209 0.208-1.603 0.601-1.254 1.255-0.504 3.897 1.741 6.158-3.186 0.011-5.586 1.349-5.586 3.123C36.875 66.782 39.293 68.125 42.5 68.125zM61.875 65c0 0.885-1.871 1.875-4.375 1.875-1.785 0-3.374-1.214-4.106-1.875 0.733-0.661 2.321-1.875 4.106-1.875C60.004 63.125 61.875 64.115 61.875 65zM53.978 58.371c1.217-1.216 2.669-2.002 3.7-2.002 0.321 0 0.563 0.079 0.719 0.235 0.625 0.626 0.003 2.649-1.768 4.419-1.268 1.268-3.248 1.531-4.231 1.58C52.446 61.619 52.708 59.64 53.978 58.371zM50 53.125c0.885 0 1.875 1.871 1.875 4.375 0 1.785-1.214 3.374-1.875 4.106-0.661-0.733-1.875-2.321-1.875-4.106C48.125 54.996 49.115 53.125 50 53.125zM50 63.125c1.034 0 1.875 0.841 1.875 1.875S51.034 66.875 50 66.875 48.125 66.034 48.125 65 48.966 63.125 50 63.125zM41.603 56.603c0.156-0.156 0.398-0.235 0.719-0.235 1.031 0 2.483 0.786 3.7 2.002 1.263 1.263 1.528 3.246 1.578 4.231-0.984-0.049-2.963-0.312-4.23-1.579C41.6 59.252 40.978 57.229 41.603 56.603zM42.5 63.125c1.785 0 3.374 1.214 4.106 1.875-0.733 0.661-2.321 1.875-4.106 1.875-2.504 0-4.375-0.99-4.375-1.875S39.996 63.125 42.5 63.125z" fill="#d0b794" data-fill-palette-color="accent"></path></svg></g></svg></g></svg></g><defs></defs></svg><rect width="395.52" height="107.74323600071075" fill="none" stroke="none" visibility="hidden"></rect></g></svg></g></svg>